REM DIRINDEX 1\6,1\2\7,1\2\8,1\2\9,1\3\10,1\3\11,1\4\12,1\4\13,1\4\14,1\5\15,1\5\16,1\5\17
REM DIRNAME folder01,folder02,folder03,folder04,folder05,folder06,folder07,folder08,folder09,folder10,folder11,folder12,folder13,folder14,folder15,folder16,folder17
TITLE ""
FILE "P2Q_t_0018-0035.mp3" MP3
  TRACK 01 AUDIO
    TITLE "10:cjc040_1684"
    INDEX 01 00:00:00
  TRACK 02 AUDIO
    TITLE "0:"
    INDEX 01 00:01:07
  TRACK 03 AUDIO
    TITLE "11:cjc040_1685"
    INDEX 01 00:01:60
  TRACK 04 AUDIO
    TITLE "0:"
    INDEX 01 00:04:62
  TRACK 05 AUDIO
    TITLE "10:cjc040_1686"
    INDEX 01 00:05:38
  TRACK 06 AUDIO
    TITLE "0:"
    INDEX 01 00:06:61
  TRACK 07 AUDIO
    TITLE "11:cjc040_1687"
    INDEX 01 00:07:41
  TRACK 08 AUDIO
    TITLE "0:"
    INDEX 01 00:10:70
  TRACK 09 AUDIO
    TITLE "10:cjc040_1688"
    INDEX 01 00:11:52
  TRACK 10 AUDIO
    TITLE "0:"
    INDEX 01 00:12:71
  TRACK 11 AUDIO
    TITLE "11:cjc040_1689"
    INDEX 01 00:13:51
  TRACK 12 AUDIO
    TITLE "0:"
    INDEX 01 00:16:34
  TRACK 13 AUDIO
    TITLE "10:cjc040_1690"
    INDEX 01 00:17:20
  TRACK 14 AUDIO
    TITLE "0:"
    INDEX 01 00:18:29
  TRACK 15 AUDIO
    TITLE "11:cjc040_1691"
    INDEX 01 00:19:13
  TRACK 16 AUDIO
    TITLE "0:"
    INDEX 01 00:22:32
  TRACK 17 AUDIO
    TITLE "10:cjc040_1692"
    INDEX 01 00:23:12
  TRACK 18 AUDIO
    TITLE "0:"
    INDEX 01 00:24:14
  TRACK 19 AUDIO
    TITLE "11:cjc040_1693"
    INDEX 01 00:24:61
  TRACK 20 AUDIO
    TITLE "0:"
    INDEX 01 00:25:58
  TRACK 21 AUDIO
    TITLE "10:cjc040_1694"
    INDEX 01 00:26:32
  TRACK 22 AUDIO
    TITLE "0:"
    INDEX 01 00:27:47
  TRACK 23 AUDIO
    TITLE "11:cjc040_1695"
    INDEX 01 00:28:25
  TRACK 24 AUDIO
    TITLE "0:"
    INDEX 01 00:29:70
  TRACK 25 AUDIO
    TITLE "10:cjc040_1696"
    INDEX 01 00:30:46
  TRACK 26 AUDIO
    TITLE "0:"
    INDEX 01 00:31:65
  TRACK 27 AUDIO
    TITLE "11:cjc040_1697"
    INDEX 01 00:32:45
  TRACK 28 AUDIO
    TITLE "0:"
    INDEX 01 00:37:32
  TRACK 29 AUDIO
    TITLE "10:cjc040_1698"
    INDEX 01 00:38:10
  TRACK 30 AUDIO
    TITLE "0:"
    INDEX 01 00:39:13
  TRACK 31 AUDIO
    TITLE "11:cjc040_1699"
    INDEX 01 00:39:74
  TRACK 32 AUDIO
    TITLE "0:"
    INDEX 01 00:42:68
  TRACK 33 AUDIO
    TITLE "10:cjc040_1700"
    INDEX 01 00:43:46
  TRACK 34 AUDIO
    TITLE "0:"
    INDEX 01 00:44:67
  TRACK 35 AUDIO
    TITLE "11:cjc040_1701"
    INDEX 01 00:45:41
  TRACK 36 AUDIO
    TITLE "0:"
    INDEX 01 00:48:61
  TRACK 37 AUDIO
    TITLE "10:cjc040_1702"
    INDEX 01 00:49:39
  TRACK 38 AUDIO
    TITLE "0:"
    INDEX 01 00:50:46
  TRACK 39 AUDIO
    TITLE "11:cjc040_1703"
    INDEX 01 00:51:28
  TRACK 40 AUDIO
    TITLE "0:"
    INDEX 01 00:54:01
  TRACK 41 AUDIO
    TITLE "10:cjc040_1704"
    INDEX 01 00:54:62
  TRACK 42 AUDIO
    TITLE "0:"
    INDEX 01 00:56:08
  TRACK 43 AUDIO
    TITLE "11:cjc040_1705"
    INDEX 01 00:56:61
  TRACK 44 AUDIO
    TITLE "0:"
    INDEX 01 00:59:43
  TRACK 45 AUDIO
    TITLE "10:cjc040_1706"
    INDEX 01 01:00:23
  TRACK 46 AUDIO
    TITLE "0:"
    INDEX 01 01:01:40
  TRACK 47 AUDIO
    TITLE "11:cjc040_1707"
    INDEX 01 01:02:20
  TRACK 48 AUDIO
    TITLE "0:"
    INDEX 01 01:07:35
  TRACK 49 AUDIO
    TITLE "10:cjc040_1708"
    INDEX 01 01:08:07
  TRACK 50 AUDIO
    TITLE "0:"
    INDEX 01 01:09:20
  TRACK 51 AUDIO
    TITLE "11:cjc040_1709"
    INDEX 01 01:10:02
  TRACK 52 AUDIO
    TITLE "0:"
    INDEX 01 01:11:13
  TRACK 53 AUDIO
    TITLE "10:cjc040_1710"
    INDEX 01 01:11:66
  TRACK 54 AUDIO
    TITLE "0:"
    INDEX 01 01:13:22
  TRACK 55 AUDIO
    TITLE "11:cjc040_1711"
    INDEX 01 01:13:71
  TRACK 56 AUDIO
    TITLE "0:"
    INDEX 01 01:17:08
  TRACK 57 AUDIO
    TITLE "10:cjc040_1712"
    INDEX 01 01:17:61
  TRACK 58 AUDIO
    TITLE "0:"
    INDEX 01 01:18:64
  TRACK 59 AUDIO
    TITLE "11:cjc040_1713"
    INDEX 01 01:19:46
  TRACK 60 AUDIO
    TITLE "0:"
    INDEX 01 01:25:41
  TRACK 61 AUDIO
    TITLE "10:cjc040_1714"
    INDEX 01 01:26:19
  TRACK 62 AUDIO
    TITLE "0:"
    INDEX 01 01:27:44
  TRACK 63 AUDIO
    TITLE "11:cjc040_1715"
    INDEX 01 01:28:27
  TRACK 64 AUDIO
    TITLE "0:"
    INDEX 01 01:33:13
  TRACK 65 AUDIO
    TITLE "10:cjc040_1716"
    INDEX 01 01:33:60
  TRACK 66 AUDIO
    TITLE "0:"
    INDEX 01 01:34:52
  TRACK 67 AUDIO
    TITLE "11:cjc040_1717"
    INDEX 01 01:35:35
  TRACK 68 AUDIO
    TITLE "0:"
    INDEX 01 01:38:04
  TRACK 69 AUDIO
    TITLE "10:cjc040_1718"
    INDEX 01 01:38:51
  TRACK 70 AUDIO
    TITLE "0:"
    INDEX 01 01:39:70
  TRACK 71 AUDIO
    TITLE "11:cjc040_1719"
    INDEX 01 01:40:50
  TRACK 72 AUDIO
    TITLE "0:"
    INDEX 01 01:42:14
